<svg xmlns="http://www.w3.org/2000/svg" viewBox="0 0 1180 810" font-family="system-ui, -apple-system, Segoe UI, Roboto, sans-serif"><rect width="1180" height="810" fill="#fdfdfc"/><text x="24" y="40" font-size="19" font-weight="650" fill="#1a202c">Where the surviving signal sits — soil</text><text x="24" y="63" font-size="12.5" fill="#4a5568">Share of basins in each stratum whose trend survives both corrections. Strata with fewer than 30 basins are omitted rather than shown at a width their sample cannot support.</text><text x="24" y="84" font-size="12.5" fill="#4a5568">System × position × elevation band × dominant land cover, from the published reference atlas.</text><rect x="430" y="112" width="16" height="9" rx="2" fill="#9b2c2c"/><text x="452" y="120" font-size="11.5" fill="#1a202c">significant decrease</text><rect x="590" y="112" width="16" height="9" rx="2" fill="#1b7f5a"/><text x="612" y="120" font-size="11.5" fill="#1a202c">significant increase</text><text x="420" y="151" text-anchor="end" font-size="11.5" fill="#1a202c">amu darya · headwater · lowland · irrigated cropland</text><rect x="430" y="142" width="560" height="12" rx="2" fill="#e2e8e5"/><rect x="430.0" y="142" width="560.0" height="12" rx="2" fill="#9b2c2c"><title>33 of 33 basins</title></rect><text x="1000" y="152" font-size="11.5" fill="#4a5568">100% of 33</text><text x="420" y="177" text-anchor="end" font-size="11.5" fill="#1a202c">amu darya · headwater · lowland · mixed or natural</text><rect x="430" y="168" width="560" height="12" rx="2" fill="#e2e8e5"/><rect x="430.0" y="168" width="560.0" height="12" rx="2" fill="#9b2c2c"><title>39 of 39 basins</title></rect><text x="1000" y="178" font-size="11.5" fill="#4a5568">100% of 39</text><text x="420" y="203" text-anchor="end" font-size="11.5" fill="#1a202c">syr darya · headwater · foothill · irrigated cropland</text><rect x="430" y="194" width="560" height="12" rx="2" fill="#e2e8e5"/><rect x="430.0" y="194" width="543.0" height="12" rx="2" fill="#9b2c2c"><title>32 of 33 basins</title></rect><text x="1000" y="204" font-size="11.5" fill="#4a5568">97% of 33</text><text x="420" y="229" text-anchor="end" font-size="11.5" fill="#1a202c">amu darya · middle or lower · foothill · rainfed cropland</text><rect x="430" y="220" width="560" height="12" rx="2" fill="#e2e8e5"/><rect x="430.0" y="220" width="506.7" height="12" rx="2" fill="#9b2c2c"><title>38 of 42 basins</title></rect><text x="1000" y="230" font-size="11.5" fill="#4a5568">90% of 42</text><text x="420" y="255" text-anchor="end" font-size="11.5" fill="#1a202c">amu darya · middle or lower · lowland · irrigated cropland</text><rect x="430" y="246" width="560" height="12" rx="2" fill="#e2e8e5"/><rect x="430.0" y="246" width="492.0" height="12" rx="2" fill="#9b2c2c"><title>217 of 247 basins</title></rect><text x="1000" y="256" font-size="11.5" fill="#4a5568">88% of 247</text><text x="420" y="281" text-anchor="end" font-size="11.5" fill="#1a202c">syr darya · middle or lower · foothill · irrigated cropland</text><rect x="430" y="272" width="560" height="12" rx="2" fill="#e2e8e5"/><rect x="430.0" y="272" width="469.2" height="12" rx="2" fill="#9b2c2c"><title>31 of 37 basins</title></rect><text x="1000" y="282" font-size="11.5" fill="#4a5568">84% of 37</text><text x="420" y="307" text-anchor="end" font-size="11.5" fill="#1a202c">amu darya · middle or lower · lowland · rainfed cropland</text><rect x="430" y="298" width="560" height="12" rx="2" fill="#e2e8e5"/><rect x="430.0" y="298" width="448.0" height="12" rx="2" fill="#9b2c2c"><title>48 of 60 basins</title></rect><text x="1000" y="308" font-size="11.5" fill="#4a5568">80% of 60</text><text x="420" y="333" text-anchor="end" font-size="11.5" fill="#1a202c">syr darya · middle or lower · lowland · irrigated cropland</text><rect x="430" y="324" width="560" height="12" rx="2" fill="#e2e8e5"/><rect x="430.0" y="324" width="417.2" height="12" rx="2" fill="#9b2c2c"><title>187 of 251 basins</title></rect><text x="1000" y="334" font-size="11.5" fill="#4a5568">75% of 251</text><text x="420" y="359" text-anchor="end" font-size="11.5" fill="#1a202c">amu darya · middle or lower · foothill · irrigated cropland</text><rect x="430" y="350" width="560" height="12" rx="2" fill="#e2e8e5"/><rect x="430.0" y="350" width="413.5" height="12" rx="2" fill="#9b2c2c"><title>48 of 65 basins</title></rect><text x="1000" y="360" font-size="11.5" fill="#4a5568">74% of 65</text><text x="420" y="385" text-anchor="end" font-size="11.5" fill="#1a202c">amu darya · middle or lower · foothill · mixed or natural</text><rect x="430" y="376" width="560" height="12" rx="2" fill="#e2e8e5"/><rect x="430.0" y="376" width="384.0" height="12" rx="2" fill="#9b2c2c"><title>299 of 436 basins</title></rect><text x="1000" y="386" font-size="11.5" fill="#4a5568">69% of 436</text><text x="420" y="411" text-anchor="end" font-size="11.5" fill="#1a202c">amu darya · headwater · high mountain · mixed or natural</text><rect x="430" y="402" width="560" height="12" rx="2" fill="#e2e8e5"/><rect x="430.0" y="402" width="360.6" height="12" rx="2" fill="#9b2c2c"><title>577 of 896 basins</title></rect><text x="1000" y="412" font-size="11.5" fill="#4a5568">64% of 896</text><text x="420" y="437" text-anchor="end" font-size="11.5" fill="#1a202c">amu darya · headwater · foothill · mixed or natural</text><rect x="430" y="428" width="560" height="12" rx="2" fill="#e2e8e5"/><rect x="430.0" y="428" width="322.6" height="12" rx="2" fill="#9b2c2c"><title>106 of 184 basins</title></rect><text x="1000" y="438" font-size="11.5" fill="#4a5568">58% of 184</text><text x="420" y="463" text-anchor="end" font-size="11.5" fill="#1a202c">amu darya · middle or lower · lowland · mixed or natural</text><rect x="430" y="454" width="560" height="12" rx="2" fill="#e2e8e5"/><rect x="430.0" y="454" width="322.5" height="12" rx="2" fill="#9b2c2c"><title>1232 of 2139 basins</title></rect><text x="1000" y="464" font-size="11.5" fill="#4a5568">58% of 2139</text><text x="420" y="489" text-anchor="end" font-size="11.5" fill="#1a202c">syr darya · headwater · high mountain · mixed or natural</text><rect x="430" y="480" width="560" height="12" rx="2" fill="#e2e8e5"/><rect x="430.0" y="480" width="286.8" height="12" rx="2" fill="#9b2c2c"><title>105 of 205 basins</title></rect><text x="1000" y="490" font-size="11.5" fill="#4a5568">51% of 205</text><text x="420" y="515" text-anchor="end" font-size="11.5" fill="#1a202c">syr darya · middle or lower · foothill · mixed or natural</text><rect x="430" y="506" width="560" height="12" rx="2" fill="#e2e8e5"/><rect x="430.0" y="506" width="248.2" height="12" rx="2" fill="#9b2c2c"><title>129 of 291 basins</title></rect><text x="1000" y="516" font-size="11.5" fill="#4a5568">44% of 291</text><text x="420" y="541" text-anchor="end" font-size="11.5" fill="#1a202c">syr darya · headwater · montane · mixed or natural</text><rect x="430" y="532" width="560" height="12" rx="2" fill="#e2e8e5"/><rect x="430.0" y="532" width="216.3" height="12" rx="2" fill="#9b2c2c"><title>134 of 347 basins</title></rect><text x="1000" y="542" font-size="11.5" fill="#4a5568">39% of 347</text><text x="420" y="567" text-anchor="end" font-size="11.5" fill="#1a202c">syr darya · middle or lower · high mountain · mixed or natural</text><rect x="430" y="558" width="560" height="12" rx="2" fill="#e2e8e5"/><rect x="430.0" y="558" width="152.7" height="12" rx="2" fill="#9b2c2c"><title>15 of 55 basins</title></rect><text x="1000" y="568" font-size="11.5" fill="#4a5568">27% of 55</text><text x="420" y="593" text-anchor="end" font-size="11.5" fill="#1a202c">syr darya · middle or lower · montane · mixed or natural</text><rect x="430" y="584" width="560" height="12" rx="2" fill="#e2e8e5"/><rect x="430.0" y="584" width="148.0" height="12" rx="2" fill="#9b2c2c"><title>51 of 193 basins</title></rect><text x="1000" y="594" font-size="11.5" fill="#4a5568">26% of 193</text><text x="420" y="619" text-anchor="end" font-size="11.5" fill="#1a202c">amu darya · middle or lower · montane · mixed or natural</text><rect x="430" y="610" width="560" height="12" rx="2" fill="#e2e8e5"/><rect x="430.0" y="610" width="120.7" height="12" rx="2" fill="#9b2c2c"><title>61 of 283 basins</title></rect><text x="1000" y="620" font-size="11.5" fill="#4a5568">22% of 283</text><text x="420" y="645" text-anchor="end" font-size="11.5" fill="#1a202c">syr darya · headwater · foothill · mixed or natural</text><rect x="430" y="636" width="560" height="12" rx="2" fill="#e2e8e5"/><rect x="430.0" y="636" width="110.8" height="12" rx="2" fill="#9b2c2c"><title>18 of 91 basins</title></rect><text x="1000" y="646" font-size="11.5" fill="#4a5568">20% of 91</text><text x="420" y="671" text-anchor="end" font-size="11.5" fill="#1a202c">syr darya · middle or lower · lowland · mixed or natural</text><rect x="430" y="662" width="560" height="12" rx="2" fill="#e2e8e5"/><rect x="430.0" y="662" width="100.1" height="12" rx="2" fill="#9b2c2c"><title>175 of 979 basins</title></rect><text x="1000" y="672" font-size="11.5" fill="#4a5568">18% of 979</text><text x="420" y="697" text-anchor="end" font-size="11.5" fill="#1a202c">amu darya · headwater · montane · mixed or natural</text><rect x="430" y="688" width="560" height="12" rx="2" fill="#e2e8e5"/><rect x="430.0" y="688" width="41.1" height="12" rx="2" fill="#9b2c2c"><title>24 of 327 basins</title></rect><text x="1000" y="698" font-size="11.5" fill="#4a5568">7% of 327</text><text x="420" y="723" text-anchor="end" font-size="11.5" fill="#1a202c">amu darya · middle or lower · high mountain · mixed or natural</text><rect x="430" y="714" width="560" height="12" rx="2" fill="#e2e8e5"/><rect x="430.0" y="714" width="22.4" height="12" rx="2" fill="#9b2c2c"><title>5 of 125 basins</title></rect><text x="1000" y="724" font-size="11.5" fill="#4a5568">4% of 125</text><text x="24" y="780" font-size="11.5" fill="#4a5568">Median Sen slope is published per stratum in the downloadable cross-tabulation; the bar shows only how much of each stratum moves.</text></svg>